<?xml version="1.0" encoding="us-ascii" standalone="no"?><svg xmlns="http://www.w3.org/2000/svg" xmlns:xlink="http://www.w3.org/1999/xlink" contentStyleType="text/css" height="447px" preserveAspectRatio="none" style="width:392px;height:447px;background:#FFFFFF;" version="1.1" viewBox="0 0 392 447" width="392px" zoomAndPan="magnify"><defs><filter height="300%" id="fhu6s89onxcue" width="300%" x="-1" y="-1"><feGaussianBlur result="blurOut" stdDeviation="2.0"/><feColorMatrix in="blurOut" result="blurOut2" type="matrix" values="0 0 0 0 0 0 0 0 0 0 0 0 0 0 0 0 0 0 .4 0"/><feOffset dx="4.0" dy="4.0" in="blurOut2" result="blurOut3"/><feBlend in="SourceGraphic" in2="blurOut3" mode="normal"/></filter></defs><g><!--entity Fulltext--><g id="elem_Fulltext"><rect fill="#F1F1F1" filter="url(#fhu6s89onxcue)" height="36.2969" rx="2.5" ry="2.5" style="stroke:#181818;stroke-width:0.5;" width="72" x="7" y="111"/><text fill="#000000" font-family="sans-serif" font-size="14" lengthAdjust="spacing" textLength="52" x="17" y="133.9951">Fulltext</text></g><!--entity Visualisation--><g id="elem_Visualisation"><rect fill="#F1F1F1" filter="url(#fhu6s89onxcue)" height="36.2969" rx="2.5" ry="2.5" style="stroke:#181818;stroke-width:0.5;" width="110" x="114" y="111"/><text fill="#000000" font-family="sans-serif" font-size="14" lengthAdjust="spacing" textLength="90" x="124" y="133.9951">Visualisation</text></g><!--entity PropertyEdit--><g id="elem_PropertyEdit"><rect fill="#F1F1F1" filter="url(#fhu6s89onxcue)" height="36.2969" rx="2.5" ry="2.5" style="stroke:#181818;stroke-width:0.5;" width="107" x="259.5" y="111"/><text fill="#000000" font-family="sans-serif" font-size="14" lengthAdjust="spacing" textLength="87" x="269.5" y="133.9951">PropertyEdit</text></g><!--entity SchemaSupport--><g id="elem_SchemaSupport"><rect fill="#F1F1F1" filter="url(#fhu6s89onxcue)" height="36.2969" rx="2.5" ry="2.5" style="stroke:#181818;stroke-width:0.5;" width="134" x="246" y="207"/><text fill="#000000" font-family="sans-serif" font-size="14" lengthAdjust="spacing" textLength="114" x="256" y="229.9951">SchemaSupport</text></g><!--entity UUID--><g id="elem_UUID"><rect fill="#F1F1F1" filter="url(#fhu6s89onxcue)" height="36.2969" rx="2.5" ry="2.5" style="stroke:#181818;stroke-width:0.5;" width="55" x="23.5" y="207"/><text fill="#000000" font-family="sans-serif" font-size="14" lengthAdjust="spacing" textLength="35" x="33.5" y="229.9951">UUID</text></g><!--entity Perspectives--><g id="elem_Perspectives"><rect fill="#F1F1F1" filter="url(#fhu6s89onxcue)" height="36.2969" rx="2.5" ry="2.5" style="stroke:#181818;stroke-width:0.5;" width="122" x="41" y="303"/><text fill="#000000" font-family="sans-serif" font-size="14" font-weight="bold" lengthAdjust="spacing" textLength="102" x="51" y="325.9951">Perspectives</text></g><!--entity BaseEdit--><g id="elem_BaseEdit"><rect fill="#F1F1F1" filter="url(#fhu6s89onxcue)" height="36.2969" rx="2.5" ry="2.5" style="stroke:#181818;stroke-width:0.5;" width="90" x="121" y="207"/><text fill="#000000" font-family="sans-serif" font-size="14" font-weight="bold" lengthAdjust="spacing" textLength="70" x="131" y="229.9951">BaseEdit</text></g><!--entity SchemaEdit--><g id="elem_SchemaEdit"><rect fill="#F1F1F1" filter="url(#fhu6s89onxcue)" height="36.2969" rx="2.5" ry="2.5" style="stroke:#181818;stroke-width:0.5;" width="114" x="198" y="303"/><text fill="#000000" font-family="sans-serif" font-size="14" font-weight="bold" lengthAdjust="spacing" textLength="94" x="208" y="325.9951">SchemaEdit</text></g><!--entity FullEdit--><g id="elem_FullEdit"><rect fill="#F1F1F1" filter="url(#fhu6s89onxcue)" height="36.2969" rx="2.5" ry="2.5" style="stroke:#181818;stroke-width:0.5;" width="82" x="137" y="399"/><text fill="#000000" font-family="sans-serif" font-size="14" font-weight="bold" lengthAdjust="spacing" textLength="62" x="147" y="421.9951">FullEdit</text></g><!--entity DBAbstraction--><g id="elem_DBAbstraction"><path d="M117,16 C117,6 178,6 178,6 C178,6 239,6 239,16 L239,41.2969 C239,51.2969 178,51.2969 178,51.2969 C178,51.2969 117,51.2969 117,41.2969 L117,16 " fill="#F1F1F1" filter="url(#fhu6s89onxcue)" style="stroke:#181818;stroke-width:0.5;"/><path d="M117,16 C117,26 178,26 178,26 C178,26 239,26 239,16 " fill="none" style="stroke:#181818;stroke-width:0.5;"/><text fill="#000000" font-family="sans-serif" font-size="14" lengthAdjust="spacing" textLength="102" x="127" y="42.9951">DBAbstraction</text></g><!--link DBAbstraction to Fulltext--><g id="link_DBAbstraction_Fulltext"><path d="M148.37,51.12 C125.28,67.96 93.45,91.19 70.83,107.69 " fill="none" id="DBAbstraction-to-Fulltext" style="stroke:#181818;stroke-width:1.0;"/><polygon fill="#181818" points="66.72,110.69,76.3504,108.6274,70.7624,107.7474,71.6424,102.1594,66.72,110.69" style="stroke:#181818;stroke-width:1.0;"/></g><!--link DBAbstraction to PropertyEdit--><g id="link_DBAbstraction_PropertyEdit"><path d="M207.63,51.12 C230.72,67.96 262.55,91.19 285.17,107.69 " fill="none" id="DBAbstraction-to-PropertyEdit" style="stroke:#181818;stroke-width:1.0;"/><polygon fill="#181818" points="289.28,110.69,284.3576,102.1594,285.2376,107.7474,279.6496,108.6274,289.28,110.69" style="stroke:#181818;stroke-width:1.0;"/></g><!--link Fulltext to BaseEdit--><g id="link_Fulltext_BaseEdit"><path d="M65.27,147.02 C86.13,162.96 117.31,186.79 139.45,203.71 " fill="none" id="Fulltext-to-BaseEdit" style="stroke:#181818;stroke-width:1.0;"/><polygon fill="#181818" points="143.48,206.79,138.7687,198.1411,139.511,203.749,133.9031,204.4914,143.48,206.79" style="stroke:#181818;stroke-width:1.0;"/></g><!--link Visualisation to BaseEdit--><g id="link_Visualisation_BaseEdit"><path d="M168.45,147.24 C167.96,162.48 167.25,184.81 166.72,201.46 " fill="none" id="Visualisation-to-BaseEdit" style="stroke:#181818;stroke-width:1.0;"/><polygon fill="#181818" points="166.55,206.87,170.856,198.0123,166.7213,201.8729,162.8607,197.7382,166.55,206.87" style="stroke:#181818;stroke-width:1.0;"/></g><!--link PropertyEdit to BaseEdit--><g id="link_PropertyEdit_BaseEdit"><path d="M286.38,147.02 C261.35,163.03 223.88,186.99 197.4,203.92 " fill="none" id="PropertyEdit-to-BaseEdit" style="stroke:#181818;stroke-width:1.0;"/><polygon fill="#181818" points="192.92,206.79,202.6595,205.3264,197.1365,204.1028,198.3601,198.5799,192.92,206.79" style="stroke:#181818;stroke-width:1.0;"/></g><!--link BaseEdit to Perspectives--><g id="link_BaseEdit_Perspectives"><path d="M154.26,243.24 C143.71,258.74 128.15,281.59 116.76,298.32 " fill="none" id="BaseEdit-to-Perspectives" style="stroke:#181818;stroke-width:1.0;"/><polygon fill="#181818" points="113.66,302.87,122.0344,297.6864,116.4762,298.7386,115.4241,293.1804,113.66,302.87" style="stroke:#181818;stroke-width:1.0;"/></g><!--link UUID to Perspectives--><g id="link_UUID_Perspectives"><path d="M60.35,243.24 C68.77,258.74 81.16,281.59 90.24,298.32 " fill="none" id="UUID-to-Perspectives" style="stroke:#181818;stroke-width:1.0;"/><polygon fill="#181818" points="92.71,302.87,91.9365,293.0516,90.3267,298.4745,84.9038,296.8648,92.71,302.87" style="stroke:#181818;stroke-width:1.0;"/></g><!--link BaseEdit to SchemaEdit--><g id="link_BaseEdit_SchemaEdit"><path d="M182.32,243.24 C197.25,259.01 219.37,282.37 235.28,299.17 " fill="none" id="BaseEdit-to-SchemaEdit" style="stroke:#181818;stroke-width:1.0;"/><polygon fill="#181818" points="238.78,302.87,235.487,293.588,235.3385,299.2429,229.6836,299.0944,238.78,302.87" style="stroke:#181818;stroke-width:1.0;"/></g><!--link SchemaSupport to SchemaEdit--><g id="link_SchemaSupport_SchemaEdit"><path d="M302.36,243.24 C292.8,258.74 278.7,281.59 268.38,298.32 " fill="none" id="SchemaSupport-to-SchemaEdit" style="stroke:#181818;stroke-width:1.0;"/><polygon fill="#181818" points="265.57,302.87,273.7018,297.3136,268.1969,298.6156,266.8948,293.1107,265.57,302.87" style="stroke:#181818;stroke-width:1.0;"/></g><!--link SchemaEdit to FullEdit--><g id="link_SchemaEdit_FullEdit"><path d="M240.88,339.24 C228.07,354.88 209.15,377.98 195.41,394.75 " fill="none" id="SchemaEdit-to-FullEdit" style="stroke:#181818;stroke-width:1.0;"/><polygon fill="#181818" points="192.03,398.87,200.8276,394.4426,195.1985,395.0021,194.639,389.373,192.03,398.87" style="stroke:#181818;stroke-width:1.0;"/></g><!--link Perspectives to FullEdit--><g id="link_Perspectives_FullEdit"><path d="M115.94,339.24 C128.58,354.88 147.26,377.98 160.82,394.75 " fill="none" id="Perspectives-to-FullEdit" style="stroke:#181818;stroke-width:1.0;"/><polygon fill="#181818" points="164.15,398.87,161.6173,389.3524,161.0126,394.9768,155.3882,394.3722,164.15,398.87" style="stroke:#181818;stroke-width:1.0;"/></g><!--link Fulltext to UUID--><g id="link_Fulltext_UUID"><path d="M44.47,147.24 C45.91,164.2 48.1,189.95 49.54,206.87 " fill="none" id="Fulltext-UUID" style="stroke:#181818;stroke-width:1.0;stroke-dasharray:7.0,7.0;"/></g><!--link PropertyEdit to SchemaSupport--><g id="link_PropertyEdit_SchemaSupport"><path d="M313,147.24 C313,164.2 313,189.95 313,206.87 " fill="none" id="PropertyEdit-SchemaSupport" style="stroke:#181818;stroke-width:1.0;stroke-dasharray:7.0,7.0;"/></g><!--SRC=[RP71ReCm38RlUOgCooGaU8HAgzYatIfLxTs0LQ91Y6ApjMy_O8J4ssxn_t-nup_FJzpXWDhrOAoY3sCTU1WqTT2ENyRUDFi9bL9mGylwRUfxnZjlvTNG1BqXO3FQJJlvqQ7dnsjh0dPkvXbmdfmRVT0kb_TgEsPvVa9F3XisdqXvdcaWdKeHF0BXqdc3GXc1dra94eK8BMiaI2XL2mprt59NnvUQs4EpBYQgeZZiAVmsnEw1qhCH7oeYarPwMphXiAeYc2N6lwhWam34H_nlxjVsKDBEqWaRbkNwc-dxorBC-WO0]--></g></svg>